<?xml version="1.0" encoding="UTF-8" standalone="no"?>
<!-- Created with Inkscape (http://www.inkscape.org/) -->

<svg
   xmlns:dc="http://purl.org/dc/elements/1.1/"
   xmlns:cc="http://creativecommons.org/ns#"
   xmlns:rdf="http://www.w3.org/1999/02/22-rdf-syntax-ns#"
   xmlns:svg="http://www.w3.org/2000/svg"
   xmlns="http://www.w3.org/2000/svg"
   xmlns:sodipodi="http://sodipodi.sourceforge.net/DTD/sodipodi-0.dtd"
   xmlns:inkscape="http://www.inkscape.org/namespaces/inkscape"
   viewBox="0 0 92.888834 51.094687"
   id="svg4316"
   version="1.1"
   inkscape:version="0.92.1 r15371"
   sodipodi:docname="logo-jhi.svg"
   width="92.888832"
   height="51.094688">
  <defs
     id="defs4318">
    <clipPath
       id="clipPath4674"
       clipPathUnits="userSpaceOnUse">
      <path
         inkscape:connector-curvature="0"
         id="path4676"
         d="m 136.578,396.466 h 7.815 v -8.539 h -7.815 z" />
    </clipPath>
    <clipPath
       id="clipPath4690"
       clipPathUnits="userSpaceOnUse">
      <path
         inkscape:connector-curvature="0"
         id="path4692"
         d="m 135.691,386.755 h 1.76 v -11.344 h -1.76 z" />
    </clipPath>
    <clipPath
       id="clipPath4706"
       clipPathUnits="userSpaceOnUse">
      <path
         inkscape:connector-curvature="0"
         id="path4708"
         d="m 136.579,387.401 h 10.179 v -5.267 h -10.179 z" />
    </clipPath>
    <clipPath
       id="clipPath4722"
       clipPathUnits="userSpaceOnUse">
      <path
         inkscape:connector-curvature="0"
         id="path4724"
         d="m 124.83,387.321 h 10.433 V 382.47 H 124.83 Z" />
    </clipPath>
    <clipPath
       id="clipPath4738"
       clipPathUnits="userSpaceOnUse">
      <path
         inkscape:connector-curvature="0"
         id="path4740"
         d="m 128.62,397.145 h 7.26 v -9.803 h -7.26 z" />
    </clipPath>
    <clipPath
       id="clipPath4774"
       clipPathUnits="userSpaceOnUse">
      <path
         inkscape:connector-curvature="0"
         id="path4776"
         d="m 167.756,412.918 h 7.815 v -8.539 h -7.815 z" />
    </clipPath>
    <clipPath
       id="clipPath4790"
       clipPathUnits="userSpaceOnUse">
      <path
         inkscape:connector-curvature="0"
         id="path4792"
         d="m 166.869,403.207 h 1.76 v -11.344 h -1.76 z" />
    </clipPath>
    <clipPath
       id="clipPath4806"
       clipPathUnits="userSpaceOnUse">
      <path
         inkscape:connector-curvature="0"
         id="path4808"
         d="m 167.756,403.854 h 10.18 v -5.268 h -10.18 z" />
    </clipPath>
    <clipPath
       id="clipPath4822"
       clipPathUnits="userSpaceOnUse">
      <path
         inkscape:connector-curvature="0"
         id="path4824"
         d="m 156.008,403.773 h 10.432 v -4.851 h -10.432 z" />
    </clipPath>
    <clipPath
       id="clipPath4838"
       clipPathUnits="userSpaceOnUse">
      <path
         inkscape:connector-curvature="0"
         id="path4840"
         d="m 159.797,413.597 h 7.261 v -9.803 h -7.261 z" />
    </clipPath>
  </defs>
  <sodipodi:namedview
     id="base"
     pagecolor="#ffffff"
     bordercolor="#666666"
     borderopacity="1.0"
     inkscape:pageopacity="0.0"
     inkscape:pageshadow="2"
     inkscape:zoom="7.919596"
     inkscape:cx="36.151144"
     inkscape:cy="29.435599"
     inkscape:document-units="px"
     inkscape:current-layer="layer1"
     showgrid="false"
     units="px"
     fit-margin-top="0"
     fit-margin-left="0"
     fit-margin-right="0"
     fit-margin-bottom="0"
     inkscape:window-width="1920"
     inkscape:window-height="1017"
     inkscape:window-x="-8"
     inkscape:window-y="-8"
     inkscape:window-maximized="1"
     inkscape:snap-bbox="true"
     inkscape:bbox-paths="true"
     inkscape:bbox-nodes="true"
     inkscape:snap-bbox-edge-midpoints="true"
     inkscape:snap-bbox-midpoints="true">
    <inkscape:grid
       type="xygrid"
       id="grid5005"
       originx="4.2578126e-005"
       originy="-48.687385" />
  </sodipodi:namedview>
  <metadata
     id="metadata4321">
    <rdf:RDF>
      <cc:Work
         rdf:about="">
        <dc:format>image/svg+xml</dc:format>
        <dc:type
           rdf:resource="http://purl.org/dc/dcmitype/StillImage" />
        <dc:title></dc:title>
      </cc:Work>
    </rdf:RDF>
  </metadata>
  <g
     inkscape:label="Layer 1"
     inkscape:groupmode="layer"
     id="layer1"
     transform="translate(1273.2961,401.72375)">
    <g
       transform="translate(96.489366,-14.459166)"
       id="g6565">
      <path
         d="m -1344.2748,-373.66783 c 2.6501,1.50534 5.6352,2.26869 8.8719,2.26869 h 6e-4 c 4.2604,0 7.8375,-1.32859 9.2918,-1.9573 v -1.95967 c 0,-0.36893 -0.1305,-3.63762 -3.5332,-3.63762 h -27.4069 c -0.3577,0.003 -3.5333,0.13583 -3.5333,3.63762 v 0.60557 c 1.6602,-0.67319 4.1738,-1.41696 7.194,-1.41696 3.175,0 6.242,0.82799 9.1151,2.45967"
         style="fill:#6ba62e;fill-opacity:1;fill-rule:nonzero;stroke:none;stroke-width:0.59312117"
         id="path3095"
         inkscape:connector-curvature="0" />
      <path
         d="m -1331.5777,-358.52645 v 14.0457 h 1.9306 c 0.3677,-0.004 3.5368,-0.13997 3.5368,-3.63761 v -11.92411 c -1.2035,0.4828 -3.1216,1.13346 -5.4674,1.51602"
         style="fill:#6ba62e;fill-opacity:1;fill-rule:nonzero;stroke:none;stroke-width:0.59312117"
         id="path3099"
         inkscape:connector-curvature="0" />
      <path
         d="m -1335.4015,-358.20936 h -6e-4 c -1.1708,0 -2.3114,-0.0949 -3.4193,-0.28055 v 14.00893 h 5.519 v -13.82565 c -0.6762,0.0623 -1.3773,0.0973 -2.0991,0.0973"
         style="fill:#6ba62e;fill-opacity:1;fill-rule:nonzero;stroke:none;stroke-width:0.59312117"
         id="path3103"
         inkscape:connector-curvature="0" />
      <path
         d="m -1344.9962,-360.66892 c -0.3535,-0.20047 -0.71,-0.38731 -1.0694,-0.56169 v 16.74975 h 5.519 v -14.37785 c -1.5605,-0.41044 -3.0475,-1.01365 -4.4496,-1.81021"
         style="fill:#6ba62e;fill-opacity:1;fill-rule:nonzero;stroke:none;stroke-width:0.59312117"
         id="path3107"
         inkscape:connector-curvature="0" />
      <path
         d="m -1353.3098,-362.93642 v 18.45556 h 5.519 v -17.47513 c -1.7853,-0.64176 -3.6317,-0.97153 -5.519,-0.98043"
         style="fill:#811c76;fill-opacity:1;fill-rule:nonzero;stroke:none;stroke-width:0.59312117"
         id="path3111"
         inkscape:connector-curvature="0" />
      <path
         d="m -1360.5839,-361.47135 v 13.35294 c 0,0.36892 0.1305,3.63761 3.5338,3.63761 h 2.0154 v -18.37549 c -2.3517,0.22183 -4.2864,0.85825 -5.5492,1.38494"
         style="fill:#811c76;fill-opacity:1;fill-rule:nonzero;stroke:none;stroke-width:0.59312117"
         id="path3115"
         inkscape:connector-curvature="0" />
      <path
         d="m -1344.2748,-367.81324 c 2.6501,1.50593 5.6352,2.26928 8.8719,2.26928 h 6e-4 c 4.2622,-5.9e-4 7.8381,-1.32918 9.2918,-1.95789 v -4.26988 c -1.809,0.72598 -5.2331,1.83334 -9.2918,1.83334 h -6e-4 c -3.4929,0 -6.7201,-0.82741 -9.5931,-2.45968 -2.6507,-1.50534 -5.4745,-2.26928 -8.3939,-2.26928 -3.1435,0 -5.7141,0.88731 -7.194,1.54746 v 4.26276 c 1.6602,-0.6726 4.1756,-1.41519 7.194,-1.41519 3.175,0 6.242,0.8274 9.1151,2.45908"
         style="fill:#6ba62e;fill-opacity:1;fill-rule:nonzero;stroke:none;stroke-width:0.59312117"
         id="path3119"
         inkscape:connector-curvature="0" />
      <path
         d="m -1344.2748,-361.93862 c 2.6501,1.50534 5.6352,2.26869 8.8725,2.26869 4.2598,0 7.8363,-1.328 9.2918,-1.9573 v -4.28945 c -1.809,0.72538 -5.2331,1.83274 -9.2918,1.83333 h -6e-4 c -3.4929,0 -6.7201,-0.82799 -9.5931,-2.46026 -2.6507,-1.50534 -5.4745,-2.26869 -8.3939,-2.26869 -3.1435,0 -5.7141,0.88731 -7.194,1.54745 v 4.28234 c 1.6602,-0.6726 4.1762,-1.41578 7.194,-1.41578 3.175,0 6.242,0.82799 9.1151,2.45967"
         style="fill:#5c9bc1;fill-opacity:1;fill-rule:nonzero;stroke:none;stroke-width:0.59312117"
         id="path3123"
         inkscape:connector-curvature="0" />
      <path
         d="m -1320.5951,-376.90804 h 3.9247 v 0.5777 l -1.5267,0.10676 v 5.24557 h -0.8802 v -5.23667 l -1.5178,-0.12456 z"
         style="fill:#211d1d;fill-opacity:1;fill-rule:nonzero;stroke:none;stroke-width:0.59312117"
         id="path3127"
         inkscape:connector-curvature="0" />
      <path
         d="m -1316.2855,-376.89019 0.8055,-0.0979 v 2.19573 c 0.1405,-0.10617 0.1963,-0.14176 0.29,-0.19514 0.2622,-0.14235 0.6275,-0.23131 0.9555,-0.23131 0.4116,0 0.7871,0.13345 1.0398,0.35587 0.2336,0.21293 0.3179,0.47094 0.3179,0.98636 v 2.89858 h -0.7954 v -2.72065 c 0,-0.16903 -0.01,-0.2841 -0.038,-0.38197 -0.075,-0.31138 -0.3653,-0.50711 -0.777,-0.50711 -0.2437,0 -0.5154,0.0712 -0.7307,0.19573 -0.085,0.0445 -0.1311,0.0801 -0.2621,0.17793 v 3.23607 h -0.8055 z"
         style="fill:#211d1d;fill-opacity:1;fill-rule:nonzero;stroke:none;stroke-width:0.59312117"
         id="path3131"
         inkscape:connector-curvature="0" />
      <path
         d="m -1309.4382,-373.31616 c 0,-0.8535 -0.3274,-1.29775 -0.9644,-1.29775 -0.6275,0 -0.9929,0.46204 -1.0119,1.29775 z m -1.9104,0.52432 c 0.075,0.8446 0.5711,1.29834 1.3956,1.29834 0.2995,0 0.5901,-0.0534 1.0023,-0.20463 l 0.159,0.5783 c -0.468,0.15955 -0.9087,0.23072 -1.3488,0.23072 -1.3297,0 -2.1079,-0.80902 -2.1079,-2.21353 0,-1.30724 0.7028,-2.09846 1.8553,-2.09846 1.1233,0 1.7515,0.74674 1.7515,2.06288 0,0.0801 0,0.19573 -0.01,0.34638 z"
         style="fill:#211d1d;fill-opacity:1;fill-rule:nonzero;stroke:none;stroke-width:0.59312117"
         id="path3135"
         inkscape:connector-curvature="0" />
      <path
         d="m -1305.6528,-370.76449 c 0.046,-0.19573 0.065,-0.37367 0.065,-0.90688 v -5.23667 h 0.8897 v 5.1566 c 0,0.74674 -0.018,0.89798 -0.1595,1.17378 -0.14,0.2847 -0.3458,0.52432 -0.7112,0.80012 l -0.4591,-0.30249 c 0.2159,-0.23962 0.3091,-0.41756 0.3749,-0.68446"
         style="fill:#211d1d;fill-opacity:1;fill-rule:nonzero;stroke:none;stroke-width:0.59312117"
         id="path3139"
         inkscape:connector-curvature="0" />
      <path
         d="m -1302.0467,-373.06723 c -0.6554,0 -1.0955,0.33808 -1.0955,0.8446 0,0.43595 0.3464,0.73785 0.8612,0.73785 0.328,0 0.5997,-0.10676 0.9371,-0.36418 v -1.15599 c -0.2811,-0.0445 -0.4875,-0.0623 -0.7028,-0.0623 m 0.7028,-0.79122 c 0,-0.13346 0,-0.21353 -0.019,-0.2847 -0.066,-0.293 -0.3559,-0.45315 -0.8334,-0.45315 -0.3469,0 -0.7123,0.0801 -1.1993,0.24852 l -0.2058,-0.60439 c 0.2337,-0.0623 0.3179,-0.0801 0.4591,-0.11566 0.3932,-0.089 0.7586,-0.13345 1.1234,-0.13345 0.5249,0 0.8808,0.0979 1.1524,0.31139 0.2533,0.20463 0.328,0.40925 0.328,0.93357 v 2.97866 h -0.7592 l -0.028,-0.38257 c -0.4496,0.34698 -0.8149,0.48043 -1.2645,0.48043 -0.8523,0 -1.4235,-0.52491 -1.4235,-1.29834 0,-0.8535 0.656,-1.40451 1.6578,-1.40451 0.2811,0 0.6554,0.0534 1.0118,0.13286 z"
         style="fill:#211d1d;fill-opacity:1;fill-rule:nonzero;stroke:none;stroke-width:0.59312117"
         id="path3143"
         inkscape:connector-curvature="0" />
      <path
         d="m -1299.6389,-375.09428 0.8049,-0.0979 v 0.33807 c 0.1411,-0.089 0.1969,-0.11565 0.2722,-0.15124 0.2717,-0.13345 0.5801,-0.21353 0.8618,-0.21353 0.3559,0 0.6934,0.11566 0.9271,0.31139 0.066,0.0534 0.1032,0.0979 0.1785,0.20463 0.449,-0.33808 0.8707,-0.49822 1.3292,-0.49822 0.3938,0 0.7402,0.13345 0.9745,0.35587 0.2526,0.24852 0.3274,0.47984 0.3274,1.03144 v 2.83571 h -0.8049 v -2.66727 c 0,-0.16844 -0.01,-0.30189 -0.029,-0.39086 -0.056,-0.31139 -0.3653,-0.53381 -0.7307,-0.53381 -0.309,0 -0.5617,0.10676 -0.8802,0.35587 v 3.23607 h -0.7959 v -2.64947 c 0,-0.23073 0,-0.32859 -0.019,-0.39977 -0.047,-0.32918 -0.3559,-0.5516 -0.7681,-0.5516 -0.2806,0 -0.5054,0.0801 -0.8434,0.32029 v 3.28055 h -0.8049 z"
         style="fill:#211d1d;fill-opacity:1;fill-rule:nonzero;stroke:none;stroke-width:0.59312117"
         id="path3147"
         inkscape:connector-curvature="0" />
      <path
         d="m -1290.4401,-373.31616 c 0,-0.8535 -0.328,-1.29775 -0.965,-1.29775 -0.6275,0 -0.9923,0.46204 -1.0113,1.29775 z m -1.911,0.52432 c 0.075,0.8446 0.5711,1.29834 1.3956,1.29834 0.3001,0 0.5901,-0.0534 1.0024,-0.20463 l 0.1589,0.5783 c -0.468,0.15955 -0.9081,0.23072 -1.3487,0.23072 -1.3298,0 -2.1074,-0.80902 -2.1074,-2.21353 0,-1.30724 0.7028,-2.09846 1.8547,-2.09846 1.1239,0 1.7515,0.74674 1.7515,2.06288 0,0.0801 0,0.19573 -0.01,0.34638 z"
         style="fill:#211d1d;fill-opacity:1;fill-rule:nonzero;stroke:none;stroke-width:0.59312117"
         id="path3151"
         inkscape:connector-curvature="0" />
      <path
         d="m -1289.025,-371.76912 c 0.449,0.17794 0.8055,0.2669 1.1424,0.2669 0.5433,0 0.8991,-0.21352 0.8991,-0.5338 0,-0.25742 -0.1684,-0.39087 -1.0587,-0.79123 -0.4864,-0.23132 -0.6459,-0.31969 -0.8333,-0.48873 -0.2147,-0.19573 -0.3369,-0.47153 -0.3369,-0.75564 0,-0.68505 0.6459,-1.14709 1.6204,-1.14709 0.4211,0 0.8618,0.089 1.3861,0.2758 l -0.2153,0.59549 c -0.487,-0.16904 -0.8523,-0.24911 -1.1803,-0.24911 -0.487,0 -0.796,0.18683 -0.796,0.48933 0,0.0884 0.028,0.16844 0.075,0.23962 0.094,0.12455 0.1779,0.18683 0.5527,0.36477 l 0.3369,0.16014 0.4306,0.21293 c 0.656,0.31139 0.8808,0.57829 0.8808,1.04923 0,0.74674 -0.6459,1.21827 -1.6672,1.21827 -0.4585,0 -0.8992,-0.0801 -1.4609,-0.2758 z"
         style="fill:#211d1d;fill-opacity:1;fill-rule:nonzero;stroke:none;stroke-width:0.59312117"
         id="path3155"
         inkscape:connector-curvature="0" />
      <path
         d="m -1320.5892,-367.46846 h 1.8731 v 3.87605 h 2.5712 v -3.87605 h 1.873 v 9.43537 h -1.873 v -4.24378 h -2.5712 v 4.24378 h -1.8731 z"
         style="fill:#211d1d;fill-opacity:1;fill-rule:nonzero;stroke:none;stroke-width:0.59312117"
         id="path3159"
         inkscape:connector-curvature="0" />
      <path
         d="m -1311.3191,-364.89384 v 4.54094 c 0,0.77817 0.2734,1.08897 0.9703,1.08897 0.3559,0 0.6981,-0.11329 1.0671,-0.38197 v -5.07831 h 1.6411 v 6.691 h -1.6275 l -0.014,-0.3962 c -0.6151,0.3962 -1.1216,0.5516 -1.7367,0.5516 -1.2853,0 -1.9419,-0.67853 -1.9419,-2.00831 v -4.82385 z"
         style="fill:#211d1d;fill-opacity:1;fill-rule:nonzero;stroke:none;stroke-width:0.59312117"
         id="path3163"
         inkscape:connector-curvature="0" />
      <path
         d="m -1306.7251,-364.72415 h 0.7242 v -1.03262 l 1.6412,-0.22658 v 1.2592 h 1.1352 v 1.08956 l -1.1352,0.12693 v 3.56466 c 0,0.1981 0.014,0.33986 0.014,0.41044 0.041,0.28292 0.2462,0.43832 0.5605,0.43832 0.1649,0 0.3286,-0.0421 0.5747,-0.12693 v 1.15955 c -0.2876,0.11329 -0.7526,0.18387 -1.1352,0.18387 -1.1762,0 -1.6548,-0.45255 -1.6548,-1.55576 v -4.07415 l -0.7242,-0.12693 z"
         style="fill:#211d1d;fill-opacity:1;fill-rule:nonzero;stroke:none;stroke-width:0.59312117"
         id="path3167"
         inkscape:connector-curvature="0" />
      <path
         d="m -1302.5282,-364.72415 h 0.7248 v -1.03262 l 1.6412,-0.22658 v 1.2592 h 1.1346 v 1.08956 l -1.1346,0.12693 v 3.56466 c 0,0.1981 0.013,0.33986 0.013,0.41044 0.042,0.28292 0.2462,0.43832 0.5611,0.43832 0.1643,0 0.328,-0.0421 0.5741,-0.12693 v 1.15955 c -0.287,0.11329 -0.752,0.18387 -1.1352,0.18387 -1.1756,0 -1.6542,-0.45255 -1.6542,-1.55576 v -4.07415 l -0.7248,-0.12693 z"
         style="fill:#211d1d;fill-opacity:1;fill-rule:nonzero;stroke:none;stroke-width:0.59312117"
         id="path3171"
         inkscape:connector-curvature="0" />
      <path
         d="m -1295.3498,-359.06577 c 0.7794,0 1.1762,-0.74971 1.1762,-2.30606 0,-1.55575 -0.3968,-2.31969 -1.1762,-2.31969 -0.7794,0 -1.1762,0.76394 -1.1762,2.29182 0,1.58422 0.3832,2.33393 1.1762,2.33393 m 0,-5.82801 c 1.9419,0 2.8855,1.14591 2.8855,3.52195 0,2.37664 -0.9436,3.52255 -2.8855,3.52255 -1.9419,0 -2.8855,-1.14591 -2.8855,-3.47984 0,-2.41875 0.9163,-3.56466 2.8855,-3.56466"
         style="fill:#211d1d;fill-opacity:1;fill-rule:nonzero;stroke:none;stroke-width:0.59312117"
         id="path3175"
         inkscape:connector-curvature="0" />
      <path
         d="m -1291.453,-364.71003 1.6269,-0.16963 v 0.53737 c 0.5884,-0.36774 1.1898,-0.56584 1.7503,-0.56584 0.5742,0 1.1216,0.1981 1.4633,0.5516 0.3558,0.35409 0.4786,0.79241 0.4786,1.66964 v 4.65362 h -1.6406 v -4.22954 c 0,-0.1981 -0.014,-0.39621 -0.028,-0.52373 -0.068,-0.43831 -0.4372,-0.72123 -0.9301,-0.72123 -0.3274,0 -0.6969,0.14175 -1.0937,0.41044 v 5.06406 h -1.6269 z"
         style="fill:#211d1d;fill-opacity:1;fill-rule:nonzero;stroke:none;stroke-width:0.59312117"
         id="path3179"
         inkscape:connector-curvature="0" />
      <path
         inkscape:connector-curvature="0"
         id="path3181"
         style="fill:#211d1d;fill-opacity:1;fill-rule:nonzero;stroke:none;stroke-width:0.59312117"
         d="m -1320.5954,-354.56784 h 1.5102 v 7.99883 h -1.5102 z" />
      <path
         d="m -1318.0415,-352.22946 1.3215,-0.14413 v 0.45611 c 0.4774,-0.31198 0.9662,-0.47983 1.4211,-0.47983 0.4662,0 0.9104,0.16785 1.1886,0.46797 0.2883,0.29953 0.3885,0.67141 0.3885,1.41459 v 3.94545 h -1.3327 v -3.58542 c 0,-0.16786 -0.011,-0.33571 -0.023,-0.44366 -0.055,-0.37188 -0.3553,-0.6115 -0.7544,-0.6115 -0.2669,0 -0.5665,0.11921 -0.8885,0.34756 v 4.29302 h -1.3215 z"
         style="fill:#211d1d;fill-opacity:1;fill-rule:nonzero;stroke:none;stroke-width:0.59312117"
         id="path3185"
         inkscape:connector-curvature="0" />
      <path
         d="m -1312.7234,-347.87649 c 0.1667,0.0718 0.2444,0.10795 0.3559,0.14413 0.3327,0.0955 0.688,0.15599 0.9549,0.15599 0.5991,0 0.9656,-0.2159 0.9656,-0.5522 0,-0.17971 -0.089,-0.31139 -0.3001,-0.44306 -0.1993,-0.13226 -0.3108,-0.19217 -0.8328,-0.40807 -0.51,-0.22775 -0.7544,-0.38374 -0.9768,-0.6115 -0.2663,-0.2758 -0.4217,-0.67142 -0.4217,-1.10321 0,-1.0433 0.8214,-1.71471 2.121,-1.71471 0.5326,0 1.0658,0.10735 1.7319,0.33511 l -0.2883,1.07948 c -0.5664,-0.21589 -1.0664,-0.32384 -1.4436,-0.32384 -0.5,0 -0.7996,0.19217 -0.7996,0.51601 0,0.0955 0.033,0.19217 0.077,0.25149 0.1115,0.14413 0.1673,0.19217 0.589,0.3962 l 0.366,0.17972 0.4887,0.22776 c 0.7995,0.38375 1.0996,0.80368 1.0996,1.51068 0,1.13938 -0.8214,1.83511 -2.1654,1.83511 -0.4443,0 -0.9769,-0.0842 -1.4324,-0.21589 -0.1109,-0.0362 -0.1886,-0.0599 -0.3885,-0.13227 z"
         style="fill:#211d1d;fill-opacity:1;fill-rule:nonzero;stroke:none;stroke-width:0.59312117"
         id="path3189"
         inkscape:connector-curvature="0" />
      <path
         d="m -1308.4819,-352.24161 h 0.5884 v -0.87545 l 1.3327,-0.19157 v 1.06702 h 0.9217 v 0.92349 l -0.9217,0.10795 v 3.02195 c 0,0.16785 0.011,0.28766 0.011,0.34757 0.034,0.24021 0.2005,0.37189 0.4555,0.37189 0.1335,0 0.2663,-0.0362 0.4662,-0.10795 v 0.98339 c -0.2331,0.0961 -0.6103,0.15599 -0.9217,0.15599 -0.9549,0 -1.3434,-0.38375 -1.3434,-1.3191 v -3.45374 l -0.5884,-0.10795 z"
         style="fill:#211d1d;fill-opacity:1;fill-rule:nonzero;stroke:none;stroke-width:0.59312117"
         id="path3193"
         inkscape:connector-curvature="0" />
      <path
         d="m -1304.7734,-352.22946 1.3215,-0.14413 v 5.80429 h -1.3215 z m 0.6554,-2.39858 c 0.4104,0 0.7438,0.32384 0.7438,0.71945 0,0.40807 -0.3334,0.73192 -0.7438,0.73192 -0.4004,0 -0.7331,-0.32385 -0.7331,-0.72005 0,-0.40748 0.3221,-0.73132 0.7331,-0.73132"
         style="fill:#211d1d;fill-opacity:1;fill-rule:nonzero;stroke:none;stroke-width:0.59312117"
         id="path3197"
         inkscape:connector-curvature="0" />
      <path
         d="m -1302.5975,-352.24161 h 0.5884 v -0.87545 l 1.3327,-0.19157 v 1.06702 h 0.9211 v 0.92349 l -0.9211,0.10795 v 3.02195 c 0,0.16785 0.011,0.28766 0.011,0.34757 0.033,0.24021 0.1993,0.37189 0.4549,0.37189 0.1335,0 0.2663,-0.0362 0.4662,-0.10795 v 0.98339 c -0.2331,0.0961 -0.6103,0.15599 -0.9211,0.15599 -0.9549,0 -1.344,-0.38375 -1.344,-1.3191 v -3.45374 l -0.5884,-0.10795 z"
         style="fill:#211d1d;fill-opacity:1;fill-rule:nonzero;stroke:none;stroke-width:0.59312117"
         id="path3201"
         inkscape:connector-curvature="0" />
      <path
         d="m -1297.6677,-352.38545 v 3.84936 c 0,0.65955 0.2224,0.92349 0.7889,0.92349 0.2882,0 0.5658,-0.0961 0.8659,-0.32385 v -4.30546 h 1.3328 v 5.67261 h -1.3221 l -0.011,-0.33571 c -0.4994,0.33571 -0.911,0.46797 -1.4104,0.46797 -1.0439,0 -1.5766,-0.57592 -1.5766,-1.70344 v -4.08898 z"
         style="fill:#211d1d;fill-opacity:1;fill-rule:nonzero;stroke:none;stroke-width:0.59312117"
         id="path3205"
         inkscape:connector-curvature="0" />
      <path
         d="m -1293.9373,-352.24161 h 0.5884 v -0.87545 l 1.3327,-0.19157 v 1.06702 h 0.9211 v 0.92349 l -0.9211,0.10795 v 3.02195 c 0,0.16785 0.011,0.28766 0.011,0.34757 0.033,0.24021 0.1993,0.37189 0.4549,0.37189 0.1335,0 0.2663,-0.0362 0.4662,-0.10795 v 0.98339 c -0.2331,0.0961 -0.6103,0.15599 -0.9211,0.15599 -0.9549,0 -1.344,-0.38375 -1.344,-1.3191 v -3.45374 l -0.5884,-0.10795 z"
         style="fill:#211d1d;fill-opacity:1;fill-rule:nonzero;stroke:none;stroke-width:0.59312117"
         id="path3209"
         inkscape:connector-curvature="0" />
      <path
         d="m -1287.3532,-349.8311 v -0.048 c 0,-0.94722 -0.3215,-1.4751 -0.9217,-1.4751 -0.5997,0 -0.9437,0.55161 -0.9549,1.52314 z m -1.7432,0.89917 c 0.1,0.91163 0.6222,1.40333 1.4988,1.40333 0.3334,0 0.6335,-0.0599 1.1222,-0.24022 l 0.2218,1.01958 c -0.5777,0.21589 -1.0771,0.29952 -1.6548,0.29952 -1.6987,0 -2.6536,-1.10261 -2.6536,-3.04567 0,-1.8108 0.8547,-2.89028 2.3096,-2.89028 1.3992,0 2.1542,1.01957 2.1542,2.89028 0,0.14413 0,0.28766 -0.023,0.56346 z"
         style="fill:#211d1d;fill-opacity:1;fill-rule:nonzero;stroke:none;stroke-width:0.59312117"
         id="path3213"
         inkscape:connector-curvature="0" />
    </g>
  </g>
</svg>
