<?xml version="1.0" encoding="UTF-8" standalone="no"?>
<!-- Created with Inkscape (http://www.inkscape.org/) -->

<svg
   xmlns:dc="http://purl.org/dc/elements/1.1/"
   xmlns:cc="http://creativecommons.org/ns#"
   xmlns:rdf="http://www.w3.org/1999/02/22-rdf-syntax-ns#"
   xmlns:svg="http://www.w3.org/2000/svg"
   xmlns="http://www.w3.org/2000/svg"
   xmlns:sodipodi="http://sodipodi.sourceforge.net/DTD/sodipodi-0.dtd"
   xmlns:inkscape="http://www.inkscape.org/namespaces/inkscape"
   width="394.76605"
   height="390.76526"
   viewBox="0 0 104.44852 103.38998"
   version="1.1"
   id="svg4549"
   inkscape:version="0.92.1 r15371"
   sodipodi:docname="logo-no-bg.svg">
  <defs
     id="defs4543" />
  <sodipodi:namedview
     id="base"
     pagecolor="#ffffff"
     bordercolor="#666666"
     borderopacity="1.0"
     inkscape:pageopacity="0.0"
     inkscape:pageshadow="2"
     inkscape:zoom="0.35"
     inkscape:cx="84.525892"
     inkscape:cy="-127.47451"
     inkscape:document-units="mm"
     inkscape:current-layer="layer1"
     showgrid="false"
     fit-margin-top="0"
     fit-margin-left="0"
     fit-margin-right="0"
     fit-margin-bottom="0"
     units="px"
     inkscape:window-width="1920"
     inkscape:window-height="1017"
     inkscape:window-x="-8"
     inkscape:window-y="-8"
     inkscape:window-maximized="1" />
  <metadata
     id="metadata4546">
    <rdf:RDF>
      <cc:Work
         rdf:about="">
        <dc:format>image/svg+xml</dc:format>
        <dc:type
           rdf:resource="http://purl.org/dc/dcmitype/StillImage" />
        <dc:title></dc:title>
      </cc:Work>
    </rdf:RDF>
  </metadata>
  <g
     inkscape:label="Layer 1"
     inkscape:groupmode="layer"
     id="layer1"
     transform="translate(45.42069,78.998559)">
    <g
       transform="matrix(0.26458333,0,0,0.26458333,-55.638287,-89.745535)"
       id="g4541"
       inkscape:export-xdpi="15.477323"
       inkscape:export-ydpi="15.477323">
      <path
         style="opacity:1;fill:#ffffff;fill-opacity:1;stroke:none;stroke-width:10;stroke-linecap:round;stroke-linejoin:round;stroke-miterlimit:4;stroke-dasharray:none;stroke-opacity:1;paint-order:normal"
         d="m 256.13867,93.714844 c -11.12869,0.616994 -16.25911,12.246466 -24.08713,18.368106 -45.24948,45.40405 -90.82804,90.5104 -135.862087,136.11041 -5.700973,7.82152 -0.537779,18.29375 6.721687,23.00322 34.74819,34.32898 68.67439,69.56401 103.96777,103.29365 8.25658,4.98968 17.76552,-1.20559 22.58042,-8.08979 48.22771,-48.62368 97.30426,-96.47705 144.97622,-145.60747 5.07702,-8.26177 -1.11345,-17.86388 -8.04397,-22.6868 C 331.87721,164.0128 298.18446,129.00899 263.125,95.515625 c -2.08589,-1.272089 -4.54637,-1.899965 -6.98633,-1.800781 z"
         id="rect5776"
         inkscape:connector-curvature="0" />
      <rect
         ry="4.130435"
         height="130"
         width="8.26087"
         id="rect5778"
         y="267.34073"
         x="-95.000023"
         style="fill:#333333;stroke-width:2.5907445"
         transform="rotate(-45)" />
      <rect
         ry="2.0652175"
         height="130"
         width="4.130435"
         id="rect5780"
         y="267.34073"
         x="-82.608727"
         style="fill:#333333;stroke-width:2.5907445"
         transform="rotate(-45)" />
      <rect
         ry="2.0652175"
         height="130"
         width="4.130435"
         id="rect5782"
         y="267.34073"
         x="-61.956532"
         style="fill:#333333;stroke-width:2.5907445"
         transform="rotate(-45)" />
      <rect
         ry="4.130435"
         height="130"
         width="8.26087"
         id="rect5784"
         y="267.34073"
         x="-49.565235"
         style="fill:#333333;stroke-width:2.5907445"
         transform="rotate(-45)" />
      <rect
         ry="2.0652175"
         height="130"
         width="4.130435"
         id="rect5786"
         y="267.34073"
         x="-28.913074"
         style="fill:#333333;stroke-width:2.5907445"
         transform="rotate(-45)" />
      <rect
         ry="2.0652175"
         height="130"
         width="4.130435"
         id="rect5788"
         y="267.34073"
         x="-20.65218"
         style="fill:#333333;stroke-width:2.5907445"
         transform="rotate(-45)" />
      <rect
         ry="4.130435"
         height="130"
         width="8.26087"
         id="rect5790"
         y="267.34073"
         x="-4.1304512"
         style="fill:#333333;stroke-width:2.5907445"
         transform="rotate(-45)" />
      <rect
         ry="2.0652175"
         height="130"
         width="4.130435"
         id="rect5792"
         y="267.34073"
         x="16.521709"
         style="fill:#333333;stroke-width:2.5907445"
         transform="rotate(-45)" />
      <rect
         ry="2.0652175"
         height="130"
         width="4.130435"
         id="rect5794"
         y="267.34073"
         x="24.782604"
         style="fill:#333333;stroke-width:2.5907445"
         transform="rotate(-45)" />
      <rect
         ry="4.130435"
         height="130"
         width="8.26087"
         id="rect5796"
         y="267.34073"
         x="41.304333"
         style="fill:#333333;stroke-width:2.5907445"
         transform="rotate(-45)" />
      <rect
         ry="6.195652"
         height="130"
         width="12.391304"
         id="rect5798"
         y="267.34073"
         x="61.956493"
         style="fill:#333333;stroke-width:2.5907445"
         transform="rotate(-45)" />
      <rect
         ry="2.0652175"
         height="130"
         width="4.130435"
         id="rect5800"
         y="267.34073"
         x="78.478249"
         style="fill:#333333;stroke-width:2.5907445"
         transform="rotate(-45)" />
      <path
         inkscape:connector-curvature="0"
         transform="rotate(-45)"
         style="fill:#333333;stroke-width:2.5907445"
         d="m 90.869548,267.34073 c 2.288261,0 4.130435,1.84217 4.130435,4.13043 v 121.73913 c 0,2.28826 -1.842174,4.13044 -4.130435,4.13044 -2.288261,0 -4.130435,-1.84218 -4.130435,-4.13044 V 271.47116 c 0,-2.28826 1.842174,-4.13043 4.130435,-4.13043 z"
         id="rect5802" />
      <path
         style="color:#000000;font-style:normal;font-variant:normal;font-weight:normal;font-stretch:normal;font-size:medium;line-height:normal;font-family:sans-serif;font-variant-ligatures:normal;font-variant-position:normal;font-variant-caps:normal;font-variant-numeric:normal;font-variant-alternates:normal;font-feature-settings:normal;text-indent:0;text-align:start;text-decoration:none;text-decoration-line:none;text-decoration-style:solid;text-decoration-color:#000000;letter-spacing:normal;word-spacing:normal;text-transform:none;writing-mode:lr-tb;direction:ltr;text-orientation:mixed;dominant-baseline:auto;baseline-shift:baseline;text-anchor:start;white-space:normal;shape-padding:0;clip-rule:nonzero;display:inline;overflow:visible;visibility:visible;opacity:1;isolation:auto;mix-blend-mode:normal;color-interpolation:sRGB;color-interpolation-filters:linearRGB;solid-color:#000000;solid-opacity:1;vector-effect:none;fill:#ffffff;fill-opacity:1;fill-rule:nonzero;stroke:none;stroke-width:10;stroke-linecap:butt;stroke-linejoin:round;stroke-miterlimit:4;stroke-dasharray:none;stroke-dashoffset:0;stroke-opacity:1;color-rendering:auto;image-rendering:auto;shape-rendering:auto;text-rendering:auto;enable-background:accumulate"
         d="m 97.07227,301.06445 c -1.4918,-0.0251 -2.94763,0.014 -4.35743,0.12696 -10.53773,0.84435 -22.95438,6.42954 -33.31445,11.66601 -10.36007,5.23647 -18.43555,10.29297 -18.43555,10.29297 a 5.0005,5.0005 0 0 0 1.24024,9.03516 c 0,0 0.45623,0.0608 1.9668,1.18945 1.51051,1.12861 3.63387,3.17501 5.63085,6.95508 1.93295,3.65889 4.19666,8.12016 6.73243,12.26758 2.53576,4.14741 5.19165,8.0277 8.93554,10.6875 6.71779,4.77254 12.68585,6.70051 17.26953,8.20898 4.58369,1.50847 7.48608,2.50366 10.375,5.39258 2.86225,2.86224 3.92511,5.91908 5.45508,10.5664 1.52997,4.64736 3.45452,10.62091 8.17774,17.1211 5.32274,7.32528 15.69127,12.23922 23.13476,15.73047 3.63813,1.70639 8.42969,8.63281 8.42969,8.63281 a 5.0005,5.0005 0 0 0 8.53711,0.0996 c 0,0 5.0565,-8.07743 10.29297,-18.4375 5.23647,-10.36007 10.82165,-22.77671 11.66601,-33.31445 0.90371,-11.27834 -2.90189,-25.5071 -6.70703,-37.46485 -3.80513,-11.95774 -7.8125,-21.44726 -7.8125,-21.44726 a 5.0005,5.0005 0 0 0 -2.66211,-2.66211 c 0,0 -9.48952,-4.00542 -21.44726,-7.81055 -10.46303,-3.32949 -22.66485,-6.66054 -33.10742,-6.83594 z m 31.99414,16.33203 c 1.11324,-0.0106 2.25325,0.0201 3.39648,0.0781 2.28646,0.11599 4.58512,0.34427 6.70313,0.57617 3.40625,0.37295 5.77006,0.73067 6.76171,0.88477 a 5.0005,5.0005 0 0 1 4.09961,2.02929 5.0005,5.0005 0 0 1 0.11914,0.16993 5.0005,5.0005 0 0 1 0.79297,3.9707 c -0.12167,2.0754 -1.01775,16.223 -3.52539,24.88672 -4.36055,15.06542 -18.08789,39.89062 -18.08789,39.89062 a 5.0005,5.0005 0 1 1 -8.7832,-4.77929 c 0,0 13.7079,-25.60089 17.26562,-37.89258 1.28897,-4.45329 2.26277,-13.42006 2.78125,-18.9043 -0.85075,-0.10874 -1.52754,-0.20843 -2.51367,-0.31641 -3.95999,-0.43356 -8.83116,-0.72098 -11.23047,-0.47656 -0.85612,0.0872 -3.33236,0.7142 -5.27148,1.33985 -1.93912,0.62564 -3.4668,1.20703 -3.4668,1.20703 a 5.0005,5.0005 0 1 1 -3.55859,-9.34571 c 0,0 1.7517,-0.66604 3.95508,-1.37695 2.20338,-0.71091 4.7327,-1.50903 7.32812,-1.77344 1.03465,-0.10538 2.12113,-0.15736 3.23438,-0.16797 z M 98.20898,326.875 a 5.0005,5.0005 0 0 1 1.9375,9.66406 c 0,0 -7.07696,2.87966 -9.9375,4.31446 -2.59847,1.30334 -8.63476,4.94726 -8.63476,4.94726 a 5.0005353,5.0005353 0 1 1 -5.20313,-8.54101 c 0,0 5.77814,-3.55139 9.35547,-5.34571 3.83944,-1.92579 10.68555,-4.65039 10.68555,-4.65039 a 5.0005,5.0005 0 0 1 1.79687,-0.38867 z"
         id="path5804"
         inkscape:connector-curvature="0" />
      <path
         style="color:#000000;font-style:normal;font-variant:normal;font-weight:normal;font-stretch:normal;font-size:medium;line-height:normal;font-family:sans-serif;font-variant-ligatures:normal;font-variant-position:normal;font-variant-caps:normal;font-variant-numeric:normal;font-variant-alternates:normal;font-feature-settings:normal;text-indent:0;text-align:start;text-decoration:none;text-decoration-line:none;text-decoration-style:solid;text-decoration-color:#000000;letter-spacing:normal;word-spacing:normal;text-transform:none;writing-mode:lr-tb;direction:ltr;text-orientation:mixed;dominant-baseline:auto;baseline-shift:baseline;text-anchor:start;white-space:normal;shape-padding:0;clip-rule:nonzero;display:inline;overflow:visible;visibility:visible;opacity:1;isolation:auto;mix-blend-mode:normal;color-interpolation:sRGB;color-interpolation-filters:linearRGB;solid-color:#000000;solid-opacity:1;vector-effect:none;fill:#ffffff;fill-opacity:1;fill-rule:nonzero;stroke:none;stroke-width:10;stroke-linecap:butt;stroke-linejoin:round;stroke-miterlimit:4;stroke-dasharray:none;stroke-dashoffset:0;stroke-opacity:1;color-rendering:auto;image-rendering:auto;shape-rendering:auto;text-rendering:auto;enable-background:accumulate"
         d="m 329.30859,40.619141 a 5.0005,5.0005 0 0 0 -4.1582,2.345703 c 0,0 -5.0565,8.075477 -10.29297,18.435547 -5.23647,10.360069 -10.82166,22.776713 -11.66601,33.314453 -0.90371,11.278336 2.90385,25.507096 6.70898,37.464846 3.80513,11.95774 7.81055,21.44726 7.81055,21.44726 a 5.0005,5.0005 0 0 0 2.66211,2.66211 c 0,0 9.48952,4.00737 21.44726,7.8125 11.95775,3.80513 26.1865,7.61074 37.46485,6.70703 10.53773,-0.84437 22.95438,-6.42954 33.31445,-11.66601 10.36007,-5.23647 18.4375,-10.29297 18.4375,-10.29297 a 5.0005,5.0005 0 0 0 -0.0996,-8.53711 c 0,0 -6.92642,-4.79156 -8.63281,-8.42969 -3.49125,-7.44349 -8.40519,-17.81202 -15.73047,-23.13476 -6.50019,-4.72322 -12.47372,-6.64777 -17.1211,-8.17774 -4.64733,-1.52997 -7.70417,-2.592841 -10.5664,-5.455076 -2.88892,-2.888921 -3.88411,-5.791319 -5.39258,-10.375 -1.50847,-4.583681 -3.43643,-10.551746 -8.20898,-17.269531 -2.6598,-3.743903 -6.54009,-6.399783 -10.6875,-8.935547 -4.14742,-2.535763 -8.6087,-4.799469 -12.26758,-6.732422 -3.78007,-1.996984 -5.82647,-4.120331 -6.95508,-5.630859 -1.12861,-1.510528 -1.18945,-1.966797 -1.18945,-1.966797 a 5.0005,5.0005 0 0 0 -4.87696,-3.585937 z m 16.375,40.144531 a 5.0005,5.0005 0 0 1 4.46485,7.439453 c 0,0 -11.29577,21.245205 -14.36719,31.263675 -1.68361,5.49165 -3.20055,16.06832 -4.0625,22.83008 6.76539,-0.84613 17.34665,-2.34679 22.77344,-4.0625 10.46578,-3.30885 32.52929,-15.64649 32.52929,-15.64649 a 5.0005,5.0005 0 0 1 2.72657,-0.68555 5.0005,5.0005 0 0 1 2.21679,9.37891 c 0,0 -21.31011,12.32982 -34.45703,16.48633 -10.18136,3.21891 -27.41366,4.873 -30.04101,5.11328 a 5.0005,5.0005 0 0 1 -6.22071,-3.21094 5.0005,5.0005 0 0 1 -0.0781,-0.24219 5.0005,5.0005 0 0 1 -0.0117,-0.0391 5.0005,5.0005 0 0 1 -0.0664,-2.50976 c 0.16494,-1.74407 1.9297,-19.90846 5.12891,-30.34375 3.8449,-12.54144 15.13086,-33.085941 15.13086,-33.085941 a 5.0005,5.0005 0 0 1 4.33398,-2.685547 z"
         id="path5816"
         inkscape:connector-curvature="0" />
    </g>
  </g>
</svg>
